<svg width="330" height="68" viewBox="0 0 330 68" fill="none" xmlns="http://www.w3.org/2000/svg">
<g clip-path="url(#clip0_417_7663)">
<path d="M80.3538 22.9971C83.0714 22.9971 85.4464 23.5428 87.4784 24.6338C89.5105 25.7248 91.0775 27.2623 92.1793 29.246C93.3056 31.2051 93.8686 33.474 93.8686 36.0529C93.8686 38.607 93.3056 40.876 92.1793 42.8597C91.0775 44.8434 89.4983 46.3809 87.4417 47.4719C85.4097 48.5629 83.0469 49.1086 80.3538 49.1086H70.6951V22.9971H80.3538ZM79.9498 43.6036C82.3248 43.6036 84.1732 42.9464 85.4953 41.6322C86.8174 40.318 87.4784 38.4583 87.4784 36.0529C87.4784 33.6475 86.8174 31.7753 85.4953 30.4363C84.1732 29.0972 82.3248 28.4277 79.9498 28.4277H76.9751V43.6036H79.9498ZM96.1296 38.6937C96.1296 36.5613 96.5212 34.6889 97.3048 33.0772C98.1127 31.4655 99.2021 30.2254 100.573 29.3576C101.944 28.4898 103.475 28.0558 105.164 28.0558C106.608 28.0558 107.869 28.3533 108.947 28.9485C110.048 29.5436 110.893 30.3247 111.481 31.2918V28.3533H117.761V49.1086H111.481V46.1701C110.869 47.1372 110.012 47.9183 108.91 48.5134C107.832 49.1086 106.572 49.4061 105.127 49.4061C103.462 49.4061 101.944 48.9721 100.573 48.1043C99.2021 47.2116 98.1127 45.9592 97.3048 44.3475C96.5212 42.7109 96.1296 40.8262 96.1296 38.6937ZM111.481 38.7309C111.481 37.1439 111.04 35.8917 110.159 34.9742C109.302 34.0566 108.249 33.5979 107 33.5979C105.752 33.5979 104.687 34.0566 103.805 34.9742C102.948 35.8669 102.52 37.1067 102.52 38.6937C102.52 40.2808 102.948 41.5455 103.805 42.4877C104.687 43.4053 105.752 43.864 107 43.864C108.249 43.864 109.302 43.4053 110.159 42.4877C111.04 41.5701 111.481 40.318 111.481 38.7309ZM133.726 43.7152V49.1086H130.53C128.253 49.1086 126.478 48.5506 125.205 47.4347C123.932 46.294 123.296 44.4468 123.296 41.8926V33.6351H120.798V28.3533H123.296V23.2947H129.576V28.3533H133.689V33.6351H129.576V41.967C129.576 42.587 129.722 43.0333 130.016 43.306C130.31 43.5787 130.8 43.7152 131.485 43.7152H133.726ZM135.975 38.6937C135.975 36.5613 136.367 34.6889 137.15 33.0772C137.958 31.4655 139.047 30.2254 140.418 29.3576C141.79 28.4898 143.32 28.0558 145.009 28.0558C146.454 28.0558 147.715 28.3533 148.792 28.9485C149.894 29.5436 150.738 30.3247 151.326 31.2918V28.3533H157.606V49.1086H151.326V46.1701C150.714 47.1372 149.857 47.9183 148.755 48.5134C147.678 49.1086 146.417 49.4061 144.972 49.4061C143.308 49.4061 141.79 48.9721 140.418 48.1043C139.047 47.2116 137.958 45.9592 137.15 44.3475C136.367 42.7109 135.975 40.8262 135.975 38.6937ZM151.326 38.7309C151.326 37.1439 150.885 35.8917 150.004 34.9742C149.147 34.0566 148.094 33.5979 146.845 33.5979C145.597 33.5979 144.532 34.0566 143.65 34.9742C142.793 35.8669 142.365 37.1067 142.365 38.6937C142.365 40.2808 142.793 41.5455 143.65 42.4877C144.532 43.4053 145.597 43.864 146.845 43.864C148.094 43.864 149.147 43.4053 150.004 42.4877C150.885 41.5701 151.326 40.318 151.326 38.7309Z" fill="#1D2031"/>
<path d="M191.346 22.9972V49.1086H185.066V33.4492L179.3 49.1086H174.232L168.429 33.412V49.1086H162.149V22.9972H169.568L176.803 41.0743L183.964 22.9972H191.346ZM199.02 26.196C197.918 26.196 197.012 25.8736 196.302 25.2289C195.617 24.5594 195.274 23.7411 195.274 22.774C195.274 21.782 195.617 20.9637 196.302 20.3191C197.012 19.6496 197.918 19.3148 199.02 19.3148C200.097 19.3148 200.979 19.6496 201.664 20.3191C202.374 20.9637 202.729 21.782 202.729 22.774C202.729 23.7411 202.374 24.5594 201.664 25.2289C200.979 25.8736 200.097 26.196 199.02 26.196ZM202.142 28.3534V49.1086H195.862V28.3534H202.142ZM219.179 28.1302C221.579 28.1302 223.488 28.9236 224.908 30.5107C226.353 32.0729 227.075 34.2303 227.075 36.9828V49.1086H220.832V37.8383C220.832 36.4497 220.477 35.371 219.767 34.6022C219.057 33.8335 218.102 33.4492 216.902 33.4492C215.703 33.4492 214.748 33.8335 214.038 34.6022C213.328 35.371 212.973 36.4497 212.973 37.8383V49.1086H206.693V28.3534H212.973V31.1058C213.609 30.1883 214.466 29.4692 215.543 28.9485C216.621 28.4029 217.833 28.1302 219.179 28.1302ZM230.191 38.6938C230.191 36.5613 230.583 34.689 231.365 33.0772C232.174 31.4655 233.264 30.2255 234.634 29.3576C236.006 28.4898 237.536 28.0558 239.226 28.0558C240.571 28.0558 241.797 28.341 242.898 28.9113C244.023 29.4815 244.906 30.2503 245.541 31.2174V21.5837H251.821V49.1086H245.541V46.1329C244.953 47.1249 244.108 47.9183 243.007 48.5134C241.93 49.1086 240.67 49.4061 239.226 49.4061C237.536 49.4061 236.006 48.9721 234.634 48.1043C233.264 47.2116 232.174 45.9593 231.365 44.3475C230.583 42.7109 230.191 40.8263 230.191 38.6938ZM245.541 38.731C245.541 37.1439 245.102 35.8918 244.219 34.9742C243.363 34.0566 242.31 33.598 241.062 33.598C239.812 33.598 238.748 34.0566 237.865 34.9742C237.009 35.8669 236.581 37.1067 236.581 38.6938C236.581 40.2809 237.009 41.5455 237.865 42.4877C238.748 43.4053 239.812 43.864 241.062 43.864C242.31 43.864 243.363 43.4053 244.219 42.4877C245.102 41.5702 245.541 40.3181 245.541 38.731ZM255.962 29.618C256.059 26.9648 256.915 24.919 258.533 23.4807C260.148 22.0424 262.338 21.3234 265.105 21.3234C266.941 21.3234 268.509 21.6458 269.807 22.2904C271.129 22.9351 272.121 23.8155 272.781 24.9313C273.466 26.0472 273.808 27.2996 273.808 28.6881C273.808 30.3247 273.405 31.6638 272.599 32.7053C271.79 33.7219 270.848 34.4163 269.769 34.7882V34.937C271.166 35.4082 272.267 36.1893 273.074 37.2803C273.883 38.3713 274.286 39.7724 274.286 41.4835C274.286 43.0208 273.932 44.3847 273.223 45.575C272.535 46.7404 271.519 47.6579 270.174 48.3275C268.852 48.997 267.272 49.3318 265.436 49.3318C262.498 49.3318 260.148 48.6002 258.384 47.1372C256.647 45.6742 255.727 43.4671 255.631 40.5164H261.727C261.752 41.6074 262.056 42.4754 262.644 43.1201C263.232 43.7401 264.089 44.05 265.215 44.05C266.17 44.05 266.905 43.7773 267.419 43.2317C267.957 42.6614 268.228 41.9175 268.228 40.9999C268.228 39.8096 267.847 38.9541 267.09 38.4334C266.355 37.8878 265.166 37.6151 263.525 37.6151H262.352V32.4449H263.525C264.776 32.4449 265.778 32.234 266.538 31.8126C267.322 31.3662 267.714 30.5851 267.714 29.4692C267.714 28.5765 267.468 27.8821 266.979 27.3863C266.488 26.8904 265.814 26.6424 264.958 26.6424C264.028 26.6424 263.329 26.9276 262.865 27.4979C262.424 28.0681 262.167 28.7748 262.095 29.618H255.962ZM291.234 29.2832C291.038 28.3657 290.695 27.6838 290.206 27.2375C289.717 26.7663 289.019 26.5308 288.113 26.5308C286.716 26.5308 285.714 27.1508 285.101 28.3906C284.488 29.6057 284.17 31.5399 284.146 34.1931C284.684 33.3253 285.457 32.6432 286.459 32.1473C287.489 31.6515 288.616 31.4034 289.839 31.4034C292.239 31.4034 294.16 32.1722 295.605 33.7095C297.074 35.2469 297.808 37.3919 297.808 40.1444C297.808 41.9547 297.441 43.5415 296.706 44.9055C295.997 46.2694 294.944 47.3355 293.548 48.1043C292.178 48.8731 290.549 49.2574 288.663 49.2574C284.894 49.2574 282.273 48.0671 280.804 45.6866C279.335 43.2812 278.601 39.8345 278.601 35.3462C278.601 30.6346 279.371 27.1382 280.915 24.857C282.48 22.5508 284.979 21.3978 288.406 21.3978C290.242 21.3978 291.786 21.7697 293.034 22.5136C294.307 23.2327 295.262 24.1874 295.898 25.3777C296.56 26.568 296.952 27.8698 297.074 29.2832H291.234ZM288.334 36.4248C287.28 36.4248 286.399 36.7473 285.689 37.3919C285.004 38.0119 284.661 38.9046 284.661 40.07C284.661 41.2603 284.979 42.1902 285.615 42.8597C286.277 43.5292 287.207 43.864 288.406 43.864C289.483 43.864 290.328 43.5415 290.941 42.8969C291.576 42.2274 291.896 41.3223 291.896 40.1816C291.896 39.0162 291.59 38.0986 290.977 37.4291C290.364 36.7596 289.483 36.4248 288.334 36.4248ZM301.359 35.1602C301.359 30.895 302.168 27.535 303.783 25.0801C305.424 22.6252 308.057 21.3978 311.68 21.3978C315.303 21.3978 317.924 22.6252 319.539 25.0801C321.179 27.535 321.999 30.895 321.999 35.1602C321.999 39.4749 321.179 42.8597 319.539 45.3146C317.924 47.7695 315.303 48.997 311.68 48.997C308.057 48.997 305.424 47.7695 303.783 45.3146C302.168 42.8597 301.359 39.4749 301.359 35.1602ZM315.83 35.1602C315.83 32.6557 315.56 30.7339 315.022 29.3948C314.483 28.0309 313.37 27.3491 311.68 27.3491C309.991 27.3491 308.878 28.0309 308.337 29.3948C307.798 30.7339 307.53 32.6557 307.53 35.1602C307.53 36.8463 307.627 38.2474 307.823 39.3633C308.019 40.4543 308.411 41.347 308.999 42.0414C309.612 42.7109 310.504 43.0457 311.68 43.0457C312.854 43.0457 313.737 42.7109 314.323 42.0414C314.936 41.347 315.339 40.4543 315.535 39.3633C315.731 38.2474 315.83 36.8463 315.83 35.1602Z" fill="#091CFF"/>
<path d="M325.494 22.6379C327.984 22.6379 330 20.5947 330 18.074C330 15.5535 327.984 13.5101 325.494 13.5101C323.004 13.5101 320.988 15.5535 320.988 18.074C320.988 20.5947 323.004 22.6379 325.494 22.6379Z" fill="url(#paint0_linear_417_7663)"/>
</g>
<path d="M13.1569 67.8132C16.4598 67.8132 19.1373 65.0481 19.1373 61.6373C19.1373 58.2264 16.4598 55.4612 13.1569 55.4612C9.85404 55.4612 7.17651 58.2264 7.17651 61.6373C7.17651 65.0481 9.85404 67.8132 13.1569 67.8132Z" fill="#091CFF"/>
<path d="M7.17651 25.5875L30.3805 25.9146C36.3155 25.9146 41.1452 30.8043 41.1452 36.8131C41.1452 42.822 36.3155 47.7117 30.3805 47.7117L7.17651 47.3849V25.5875Z" fill="#1D2031"/>
<path d="M20.573 2.16696H15.0327V2.17905H20.573V2.16696Z" fill="#1D2031"/>
<path d="M61.0002 36.8126C61.0002 45.3716 57.5723 53.1219 52.032 58.7334C46.4894 64.3425 38.8345 67.8131 30.3806 67.8131H18.6278C20.2617 66.285 21.2903 64.0811 21.2903 61.6373C21.2903 59.1935 20.2616 56.9896 18.6278 55.4614H30.3806C40.5376 55.4614 48.8001 47.096 48.8001 36.8126C48.8001 26.5292 40.5376 18.1638 30.3806 18.1638H17.5896V8.71835H21.5295V5.81204H30.3806C47.2908 5.81204 61.0002 19.692 61.0002 36.8126Z" fill="#1D2031"/>
<path d="M20.573 2.16696H15.0327V2.17905H20.573V2.16696Z" fill="#091CFF"/>
<path d="M7.75532 7.85188H14.9581V15.7037H7.20275V7.85188H0V0H7.75532V7.85188Z" fill="#091CFF"/>
<path d="M20.5725 2.1792H14.8313V7.74958H20.5725V2.1792Z" fill="#091CFF"/>
<path d="M7.12642 15.7035H1.58618V21.3127H7.12642V15.7035Z" fill="#091CFF"/>
<defs>
<linearGradient id="paint0_linear_417_7663" x1="327.695" y1="23.1253" x2="320.783" y2="11.3044" gradientUnits="userSpaceOnUse">
<stop offset="0.0056" stop-color="#091CFF"/>
<stop offset="1" stop-color="#1D2031"/>
</linearGradient>
<clipPath id="clip0_417_7663">
<rect width="259" height="45" fill="white" transform="translate(71 11)"/>
</clipPath>
</defs>
</svg>
